<svg width="1452" height="737" viewBox="0 0 1452 737" fill="none" xmlns="http://www.w3.org/2000/svg">
<g opacity="0.4" clip-path="url(#clip0_213_117)">
<mask id="mask0_213_117" style="mask-type:alpha" maskUnits="userSpaceOnUse" x="-15" y="-117" width="1514" height="979">
<path d="M1498.35 -116.133H-14.2715V861.384H1498.35V-116.133Z" fill="url(#paint0_linear_213_117)"/>
<path d="M1461.16 -116.133H-14.2715V861.384H1461.16V-116.133Z" fill="url(#paint1_radial_213_117)"/>
</mask>
<g mask="url(#mask0_213_117)">
<path d="M258.584 534.194L158.686 360.451L97.8038 434.295L58.5252 393.838L2.22579 464.67L0 462.183L58.2633 388.862L97.6729 429.319L159.078 354.821L259.37 529.087L346.045 452.232L346.438 452.101L435.469 427.879L509.575 306.77L546.759 382.578L585.252 389.517L615.758 439.139L730.975 285.036L770.647 346.31L813.33 292.368L865.439 372.103L950.543 180.554L1033.94 327.849L1160.03 161.177L1212.53 211.846L1313.74 258.195L1449.77 93.6172L1452 96.1048L1314.52 262.385L1313.61 261.992L1210.96 215.119L1210.7 214.858L1160.29 166.152L1033.55 333.741L950.805 187.624L865.963 378.912L813.068 297.998L770.385 351.94L730.844 290.665L615.627 445.031L583.549 392.921L544.926 385.982L509.313 313.447L437.302 431.152L347.485 455.505L258.584 534.194Z" fill="url(#paint2_linear_213_117)"/>
<path d="M620.865 491.378V495.568C620.865 496.485 620.865 497.27 620.734 497.663C620.603 498.056 620.472 498.579 620.079 498.841C619.686 499.234 619.294 499.496 618.901 499.627C618.377 499.758 617.853 499.889 617.33 499.889C616.544 499.889 615.889 499.758 615.497 499.627C614.973 499.496 614.58 499.234 614.318 498.841C614.056 498.449 613.795 498.056 613.664 497.663C613.533 497.27 613.533 496.616 613.533 495.699V491.247C613.533 490.069 613.664 489.153 613.795 488.629C614.056 488.105 614.449 487.581 614.973 487.189C615.628 486.796 616.282 486.665 617.199 486.665C617.853 486.665 618.508 486.796 619.032 487.058C619.555 487.32 619.948 487.581 620.21 487.974C620.472 488.367 620.603 488.76 620.734 489.153C620.865 489.676 620.865 490.462 620.865 491.378ZM617.722 490.331C617.722 489.676 617.722 489.283 617.592 489.022C617.461 488.891 617.33 488.76 617.068 488.76C616.806 488.76 616.675 488.891 616.544 489.022C616.413 489.153 616.413 489.676 616.413 490.331V496.485C616.413 497.27 616.413 497.663 616.544 497.794C616.675 497.925 616.806 498.056 617.068 498.056C617.33 498.056 617.461 497.925 617.592 497.794C617.722 497.663 617.722 497.27 617.722 496.616V490.331Z" fill="#FFEE00"/>
<path d="M627.673 487.059V489.809L625.578 499.76H622.436L624.661 489.285H621.519V487.059H627.673Z" fill="#FFEE00"/>
<path d="M630.423 497.271V499.889H628.066V497.271H630.423Z" fill="#FFEE00"/>
<path d="M638.147 497.663V499.889H631.208V498.056C633.303 494.651 634.481 492.557 634.874 491.771C635.267 490.985 635.398 490.331 635.398 489.938C635.398 489.545 635.398 489.283 635.267 489.152C635.136 489.022 635.005 488.891 634.743 488.891C634.481 488.891 634.35 489.022 634.219 489.152C634.088 489.283 634.088 489.676 634.088 490.331V491.509H631.208V490.985C631.208 490.331 631.208 489.676 631.339 489.283C631.47 488.891 631.601 488.498 631.863 488.105C632.125 487.712 632.517 487.45 633.041 487.189C633.565 486.927 634.088 486.927 634.743 486.927C636.052 486.927 636.969 487.189 637.624 487.843C638.278 488.498 638.54 489.283 638.54 490.2C638.54 490.985 638.409 491.64 638.016 492.557C637.624 493.342 636.576 495.044 634.743 497.794H638.147V497.663Z" fill="#FFEE00"/>
<path d="M645.479 492.559C646.003 492.69 646.265 493.082 646.527 493.344C646.789 493.737 646.92 494.653 646.92 495.963C646.92 497.01 646.789 497.796 646.658 498.189C646.396 498.712 646.134 499.105 645.479 499.367C644.956 499.629 644.17 499.891 643.123 499.891C642.206 499.891 641.421 499.76 640.897 499.498C640.373 499.236 639.98 498.843 639.718 498.32C639.457 497.796 639.326 497.01 639.326 495.832C639.326 495.046 639.326 494.392 639.457 493.868C639.588 493.344 639.98 492.82 640.635 492.559C640.242 492.428 639.98 492.035 639.718 491.642C639.588 491.249 639.457 490.726 639.457 490.071C639.457 489.024 639.718 488.107 640.373 487.583C641.028 487.06 641.944 486.798 643.123 486.798C644.563 486.798 645.479 487.06 646.003 487.714C646.527 488.238 646.789 489.154 646.789 490.202C646.789 490.857 646.658 491.38 646.527 491.642C646.396 492.035 646.003 492.297 645.479 492.559ZM643.777 495.177C643.777 494.653 643.777 494.392 643.646 494.261C643.515 494.13 643.384 493.999 643.123 493.999C642.861 493.999 642.73 494.13 642.73 494.261C642.599 494.392 642.599 494.784 642.599 495.177V496.879C642.599 497.403 642.599 497.796 642.73 497.927C642.861 498.058 642.992 498.189 643.254 498.189C643.515 498.189 643.646 498.058 643.646 497.927C643.777 497.796 643.777 497.403 643.777 496.879V495.177ZM643.646 489.809C643.646 489.416 643.646 489.154 643.515 488.893C643.384 488.762 643.254 488.631 643.123 488.631C642.861 488.631 642.73 488.762 642.73 488.893C642.599 489.024 642.599 489.285 642.599 489.678V490.595C642.599 490.987 642.599 491.249 642.73 491.38C642.861 491.511 642.992 491.642 643.123 491.642C643.384 491.642 643.515 491.511 643.515 491.38C643.646 491.249 643.646 490.987 643.646 490.464V489.809Z" fill="#FFEE00"/>
<path d="M601.225 503.553C596.381 503.553 592.322 499.625 592.322 494.65C592.322 489.806 596.25 485.747 601.225 485.747C606.069 485.747 610.128 489.675 610.128 494.65C610.128 499.495 606.2 503.553 601.225 503.553ZM601.225 487.056C597.035 487.056 593.631 490.46 593.631 494.65C593.631 498.84 597.035 502.244 601.225 502.244C605.415 502.244 608.819 498.84 608.819 494.65C608.819 490.46 605.415 487.056 601.225 487.056Z" fill="#FFEE00"/>
<path d="M600.57 498.317C600.832 498.841 601.617 498.841 601.879 498.317L603.712 495.175L605.545 492.033C605.807 491.509 605.414 490.985 604.891 490.985H601.225H597.69C597.166 490.985 596.773 491.64 597.035 492.033L598.868 495.175L600.57 498.317Z" fill="#FFEE00"/>
<path d="M600.963 590.098C600.57 590.098 600.308 589.836 600.308 589.443V516.515C600.308 516.123 600.57 515.861 600.963 515.861C601.356 515.861 601.617 516.123 601.617 516.515V589.443C601.617 589.705 601.356 590.098 600.963 590.098Z" fill="url(#paint3_linear_213_117)"/>
<path d="M1003.7 393.445V406.145H1000.56V399.337C1000.56 398.29 1000.56 397.766 1000.43 397.504C1000.43 397.242 1000.3 397.111 1000.03 397.111C999.772 396.98 999.379 396.98 998.594 396.98H998.332V395.54C999.903 395.147 1001.08 394.493 1001.87 393.445H1003.7Z" fill="#FFEE00"/>
<path d="M1010.9 398.945C1011.43 399.075 1011.69 399.468 1011.95 399.73C1012.21 400.123 1012.34 401.039 1012.34 402.349C1012.34 403.396 1012.21 404.182 1012.08 404.574C1011.82 405.098 1011.56 405.491 1010.9 405.753C1010.38 406.015 1009.59 406.277 1008.54 406.277C1007.63 406.277 1006.84 406.146 1006.32 405.884C1005.8 405.622 1005.4 405.229 1005.14 404.705C1004.88 404.182 1004.75 403.396 1004.75 402.218C1004.75 401.432 1004.75 400.778 1004.88 400.254C1005.01 399.73 1005.4 399.206 1005.93 398.945C1005.53 398.814 1005.27 398.421 1005.01 398.028C1004.75 397.635 1004.75 397.111 1004.75 396.457C1004.75 395.409 1005.01 394.493 1005.66 393.969C1006.32 393.445 1007.24 393.184 1008.41 393.184C1009.85 393.184 1010.77 393.445 1011.29 394.1C1011.82 394.624 1012.08 395.54 1012.08 396.588C1012.08 397.242 1011.95 397.766 1011.82 398.028C1011.82 398.421 1011.56 398.683 1010.9 398.945ZM1009.2 401.563C1009.2 401.039 1009.2 400.778 1009.07 400.647C1008.94 400.516 1008.81 400.385 1008.54 400.385C1008.28 400.385 1008.15 400.516 1008.15 400.647C1008.02 400.778 1008.02 401.17 1008.02 401.563V403.265C1008.02 403.789 1008.02 404.182 1008.15 404.313C1008.28 404.444 1008.41 404.574 1008.68 404.574C1008.94 404.574 1009.07 404.444 1009.07 404.313C1009.2 404.182 1009.2 403.789 1009.2 403.265V401.563ZM1009.2 396.326C1009.2 395.933 1009.2 395.671 1009.07 395.409C1008.94 395.278 1008.81 395.148 1008.68 395.148C1008.41 395.148 1008.28 395.278 1008.28 395.409C1008.15 395.54 1008.15 395.802 1008.15 396.195V397.111C1008.15 397.504 1008.15 397.766 1008.28 397.897C1008.41 398.028 1008.54 398.159 1008.68 398.159C1008.94 398.159 1009.07 398.028 1009.07 397.897C1009.2 397.766 1009.2 397.504 1009.2 396.981V396.326Z" fill="#FFEE00"/>
<path d="M1015.62 403.656V406.275H1013.26V403.656H1015.62Z" fill="#FFEE00"/>
<path d="M1023.99 397.764V401.954C1023.99 402.87 1023.99 403.656 1023.86 404.049C1023.73 404.442 1023.6 404.965 1023.21 405.227C1022.82 405.62 1022.42 405.882 1022.03 406.013C1021.51 406.144 1020.98 406.275 1020.46 406.275C1019.67 406.275 1019.02 406.144 1018.63 406.013C1018.1 405.882 1017.71 405.62 1017.45 405.227C1017.19 404.834 1016.92 404.442 1016.79 404.049C1016.66 403.656 1016.66 403.001 1016.66 402.085V397.633C1016.66 396.455 1016.79 395.538 1016.92 395.015C1017.19 394.491 1017.58 393.967 1018.1 393.574C1018.76 393.182 1019.41 393.051 1020.33 393.051C1020.98 393.051 1021.64 393.182 1022.16 393.444C1022.68 393.705 1023.08 393.967 1023.34 394.36C1023.6 394.753 1023.73 395.146 1023.86 395.538C1023.99 396.062 1023.99 396.848 1023.99 397.764ZM1020.85 396.717C1020.85 396.062 1020.85 395.669 1020.72 395.407C1020.59 395.277 1020.46 395.146 1020.2 395.146C1019.94 395.146 1019.8 395.277 1019.67 395.407C1019.54 395.538 1019.54 396.062 1019.54 396.717V402.87C1019.54 403.656 1019.54 404.049 1019.67 404.18C1019.8 404.311 1019.94 404.442 1020.2 404.442C1020.46 404.442 1020.59 404.311 1020.72 404.18C1020.85 404.049 1020.85 403.656 1020.85 403.001V396.717Z" fill="#FFEE00"/>
<path d="M1030.67 393.445V396.195L1028.58 406.145H1025.43L1027.66 395.671H1024.52V393.445H1030.67Z" fill="#FFEE00"/>
<path d="M986.68 409.939C981.835 409.939 977.776 406.011 977.776 401.036C977.776 396.192 981.704 392.133 986.68 392.133C991.524 392.133 995.583 396.061 995.583 401.036C995.583 405.88 991.524 409.939 986.68 409.939ZM986.68 393.442C982.49 393.442 979.086 396.846 979.086 401.036C979.086 405.226 982.49 408.63 986.68 408.63C990.869 408.63 994.273 405.226 994.273 401.036C994.143 396.846 990.869 393.442 986.68 393.442Z" fill="#FFEE00"/>
<path d="M987.334 405.355C987.072 405.879 986.287 405.879 986.025 405.355L984.192 402.213L982.359 399.071C982.097 398.547 982.49 398.023 983.013 398.023H986.548H990.084C990.607 398.023 991 398.678 990.738 399.071L988.905 402.213L987.334 405.355Z" fill="#FFEE00"/>
<path d="M986.811 537.724C986.418 537.724 986.156 537.462 986.156 537.07V417.924C986.156 417.531 986.418 417.27 986.811 417.27C987.204 417.27 987.466 417.531 987.466 417.924V537.07C987.466 537.462 987.204 537.724 986.811 537.724Z" fill="url(#paint4_linear_213_117)"/>
<path d="M276.521 328.501V341.201H273.379V334.393C273.379 333.345 273.379 332.821 273.248 332.56C273.248 332.298 273.117 332.167 272.855 332.167C272.594 332.036 272.201 332.036 271.415 332.036H271.153V330.596C272.724 330.203 273.903 329.548 274.688 328.501H276.521Z" fill="#FFEE00"/>
<path d="M283.854 334C284.378 334.131 284.639 334.524 284.901 334.785C285.163 335.178 285.294 336.095 285.294 337.404C285.294 338.452 285.163 339.237 285.032 339.63C284.77 340.154 284.509 340.546 283.854 340.808C283.33 341.07 282.545 341.332 281.497 341.332C280.581 341.332 279.795 341.201 279.271 340.939C278.748 340.677 278.355 340.285 278.093 339.761C277.831 339.237 277.7 338.452 277.7 337.273C277.7 336.488 277.7 335.833 277.831 335.309C277.962 334.785 278.355 334.262 279.009 334C278.617 333.869 278.355 333.476 278.093 333.083C277.831 332.691 277.831 332.167 277.831 331.512C277.831 330.465 278.093 329.548 278.748 329.025C279.402 328.501 280.319 328.239 281.497 328.239C282.937 328.239 283.854 328.501 284.378 329.156C284.901 329.679 285.163 330.596 285.163 331.643C285.163 332.298 285.032 332.822 284.901 333.083C284.77 333.476 284.378 333.738 283.854 334ZM282.152 336.619C282.152 336.095 282.152 335.833 282.021 335.702C281.89 335.571 281.759 335.44 281.497 335.44C281.235 335.44 281.104 335.571 281.104 335.702C280.973 335.833 280.973 336.226 280.973 336.619V338.321C280.973 338.844 280.973 339.237 281.104 339.368C281.235 339.499 281.366 339.63 281.628 339.63C281.89 339.63 282.021 339.499 282.021 339.368C282.152 339.237 282.152 338.844 282.152 338.321V336.619ZM282.021 331.381C282.021 330.989 282.021 330.727 281.89 330.465C281.759 330.334 281.628 330.203 281.497 330.203C281.235 330.203 281.104 330.334 281.104 330.465C280.973 330.596 280.973 330.858 280.973 331.25V332.167C280.973 332.56 280.973 332.822 281.104 332.952C281.235 333.083 281.366 333.214 281.497 333.214C281.759 333.214 281.89 333.083 281.89 332.952C282.021 332.822 282.021 332.56 282.021 332.036V331.381Z" fill="#FFEE00"/>
<path d="M288.567 338.712V341.33H286.21V338.712H288.567Z" fill="#FFEE00"/>
<path d="M294.983 328.501V331.25L292.888 341.201H289.746L291.971 330.727H288.829V328.501H294.983Z" fill="#FFEE00"/>
<path d="M302.576 328.501V330.596H298.648V332.821C299.172 332.298 299.826 331.905 300.612 331.905C301.529 331.905 302.183 332.167 302.576 332.69C302.969 333.214 303.231 334.131 303.231 335.571V337.404C303.231 338.32 303.231 338.975 303.1 339.368C302.969 339.761 302.838 340.153 302.576 340.546C302.314 340.939 301.921 341.201 301.398 341.332C300.874 341.463 300.219 341.594 299.565 341.594C298.779 341.594 297.993 341.463 297.339 341.201C296.684 340.939 296.291 340.546 296.03 339.892C295.768 339.237 295.637 338.451 295.637 337.273V336.487H298.779V337.273C298.779 338.059 298.779 338.713 298.91 338.975C298.91 339.368 299.172 339.499 299.565 339.499C299.696 339.499 299.826 339.499 299.957 339.368C300.088 339.237 300.088 339.106 300.088 339.106C300.088 338.975 300.088 338.451 300.088 337.666V335.178C300.088 334.654 300.088 334.393 299.957 334.262C299.826 334.131 299.696 334 299.434 334C299.303 334 299.172 334 299.041 334.131C298.91 334.262 298.91 334.262 298.91 334.393C298.91 334.523 298.91 334.785 298.91 335.047H295.768L295.899 328.632H302.576V328.501Z" fill="#FFEE00"/>
<path d="M259.501 344.998C254.656 344.998 250.598 341.07 250.598 336.095C250.598 331.25 254.526 327.191 259.501 327.191C264.345 327.191 268.404 331.119 268.404 336.095C268.404 340.939 264.476 344.998 259.501 344.998ZM259.501 328.501C255.311 328.501 251.907 331.905 251.907 336.095C251.907 340.284 255.311 343.688 259.501 343.688C263.691 343.688 267.095 340.284 267.095 336.095C267.095 331.905 263.691 328.501 259.501 328.501Z" fill="#FFEE00"/>
<path d="M258.846 339.891C259.108 340.414 259.893 340.414 260.155 339.891L261.988 336.748L263.821 333.606C264.083 333.082 263.69 332.559 263.167 332.559H259.501H255.966C255.442 332.559 255.049 333.213 255.311 333.606L257.144 336.748L258.846 339.891Z" fill="#FFEE00"/>
<path d="M259.239 497.529C258.846 497.529 258.584 497.267 258.584 496.874V355.471C258.584 355.078 258.846 354.816 259.239 354.816C259.631 354.816 259.893 355.078 259.893 355.471V496.874C259.893 497.136 259.631 497.529 259.239 497.529Z" fill="url(#paint5_linear_213_117)"/>
<path d="M512.062 439.924V442.15H505.123V440.316C507.218 436.912 508.396 434.817 508.789 434.032C509.182 433.246 509.313 432.592 509.313 432.199C509.313 431.806 509.313 431.544 509.182 431.413C509.051 431.282 508.92 431.151 508.658 431.151C508.396 431.151 508.265 431.282 508.134 431.413C508.004 431.544 508.004 431.937 508.004 432.592V433.77H505.123V433.246C505.123 432.592 505.123 431.937 505.254 431.544C505.385 431.151 505.516 430.759 505.778 430.366C506.04 429.973 506.432 429.711 506.956 429.449C507.48 429.188 508.004 429.188 508.658 429.188C509.967 429.188 510.884 429.449 511.539 430.104C512.193 430.759 512.455 431.544 512.455 432.461C512.455 433.246 512.324 433.901 511.931 434.817C511.539 435.734 510.491 437.305 508.658 440.055H512.062V439.924Z" fill="#FFEE00"/>
<path d="M520.179 429.32V431.415H516.252V433.641C516.775 433.117 517.43 432.724 518.215 432.724C519.132 432.724 519.787 432.986 520.179 433.51C520.572 434.034 520.834 434.95 520.834 436.39V438.224C520.834 439.14 520.834 439.795 520.703 440.187C520.572 440.58 520.441 440.973 520.179 441.366C519.918 441.759 519.525 442.02 519.001 442.151C518.477 442.282 517.823 442.413 517.168 442.413C516.383 442.413 515.597 442.282 514.942 442.02C514.288 441.759 513.895 441.366 513.633 440.711C513.371 440.187 513.24 439.271 513.24 438.093V437.307H516.382V438.093C516.382 438.878 516.383 439.533 516.513 439.795C516.513 440.187 516.775 440.318 517.168 440.318C517.299 440.318 517.43 440.318 517.561 440.187C517.692 440.057 517.692 439.926 517.692 439.926C517.692 439.795 517.692 439.271 517.692 438.485V435.998C517.692 435.474 517.692 435.212 517.561 435.081C517.43 434.95 517.299 434.819 517.037 434.819C516.906 434.819 516.775 434.819 516.644 434.95C516.513 435.081 516.513 435.081 516.513 435.212C516.513 435.343 516.513 435.605 516.513 435.867H513.24L513.371 429.451H520.179V429.32Z" fill="#FFEE00"/>
<path d="M523.977 439.398V442.017H521.62V439.398H523.977Z" fill="#FFEE00"/>
<path d="M532.356 433.639V437.829C532.356 438.745 532.356 439.531 532.225 439.924C532.095 440.317 531.964 440.84 531.571 441.102C531.178 441.495 530.785 441.757 530.392 441.888C529.869 442.019 529.345 442.15 528.821 442.15C528.036 442.15 527.381 442.019 526.988 441.888C526.465 441.757 526.072 441.495 525.81 441.102C525.548 440.709 525.286 440.317 525.155 439.924C525.024 439.531 525.024 438.876 525.024 437.96V433.508C525.024 432.33 525.155 431.413 525.286 430.89C525.548 430.366 525.941 429.842 526.465 429.449C527.119 429.057 527.774 428.926 528.69 428.926C529.345 428.926 530 429.057 530.523 429.319C531.047 429.58 531.44 429.842 531.702 430.235C531.964 430.628 532.095 431.021 532.225 431.413C532.356 431.937 532.356 432.723 532.356 433.639ZM529.214 432.592C529.214 431.937 529.214 431.544 529.083 431.282C528.952 431.152 528.821 431.021 528.559 431.021C528.298 431.021 528.167 431.152 528.036 431.282C527.905 431.413 527.905 431.937 527.905 432.592V438.745C527.905 439.531 527.905 439.924 528.036 440.055C528.167 440.186 528.298 440.317 528.559 440.317C528.821 440.317 528.952 440.186 529.083 440.055C529.214 439.924 529.214 439.531 529.214 438.876V432.592Z" fill="#FFEE00"/>
<path d="M538.379 429.32V442.02H535.236V435.212C535.236 434.165 535.237 433.641 535.106 433.379C535.106 433.117 534.975 432.986 534.713 432.986C534.451 432.855 534.058 432.855 533.273 432.855H533.011V431.415C534.582 431.022 535.76 430.368 536.546 429.32H538.379Z" fill="#FFEE00"/>
<path d="M493.078 445.814C488.234 445.814 484.175 441.886 484.175 436.911C484.175 432.067 488.103 428.008 493.078 428.008C497.922 428.008 501.981 431.936 501.981 436.911C501.981 441.755 497.922 445.814 493.078 445.814ZM493.078 429.317C488.888 429.317 485.484 432.721 485.484 436.911C485.484 441.101 488.888 444.505 493.078 444.505C497.268 444.505 500.672 441.101 500.672 436.911C500.541 432.721 497.137 429.317 493.078 429.317Z" fill="#FFEE00"/>
<path d="M493.732 441.23C493.471 441.754 492.685 441.754 492.423 441.23L490.59 438.088L488.757 434.946C488.495 434.422 488.888 433.898 489.412 433.898H493.078H496.613C497.137 433.898 497.529 434.553 497.268 434.946L495.435 438.088L493.732 441.23Z" fill="#FFEE00"/>
<path d="M492.423 596.645C492.03 596.645 491.769 596.383 491.769 595.99V458.515C491.769 458.122 492.03 457.86 492.423 457.86C492.816 457.86 493.078 458.122 493.078 458.515V595.859C493.078 596.252 492.816 596.645 492.423 596.645Z" fill="url(#paint6_linear_213_117)"/>
<path d="M639.718 175.97V178.196H632.778V176.363C634.873 172.959 636.052 170.864 636.444 170.079C636.837 169.293 636.968 168.638 636.968 168.246C636.968 167.853 636.968 167.591 636.837 167.46C636.706 167.329 636.575 167.198 636.313 167.198C636.052 167.198 635.921 167.329 635.79 167.46C635.659 167.591 635.659 167.984 635.659 168.638V169.817H632.778V169.293C632.778 168.638 632.778 167.984 632.909 167.591C633.04 167.198 633.171 166.805 633.433 166.412C633.695 166.02 634.088 165.758 634.611 165.496C635.135 165.234 635.659 165.234 636.313 165.234C637.623 165.234 638.539 165.496 639.194 166.151C639.849 166.805 640.11 167.591 640.11 168.507C640.11 169.293 639.979 169.948 639.587 170.864C639.194 171.65 638.146 173.352 636.313 176.101H639.718V175.97Z" fill="#FFEE00"/>
<path d="M647.835 175.97V178.196H640.896V176.363C642.991 172.959 644.169 170.864 644.562 170.079C644.955 169.293 645.086 168.638 645.086 168.246C645.086 167.853 645.086 167.591 644.955 167.46C644.824 167.329 644.693 167.198 644.431 167.198C644.169 167.198 644.038 167.329 643.907 167.46C643.776 167.591 643.776 167.984 643.776 168.638V169.817H640.896V169.293C640.896 168.638 640.896 167.984 641.027 167.591C641.158 167.198 641.289 166.805 641.551 166.412C641.812 166.02 642.205 165.758 642.729 165.496C643.253 165.234 643.776 165.234 644.431 165.234C645.74 165.234 646.657 165.496 647.311 166.151C647.966 166.805 648.228 167.591 648.228 168.507C648.228 169.293 648.097 169.948 647.704 170.864C647.311 171.65 646.264 173.352 644.431 176.101H647.835V175.97Z" fill="#FFEE00"/>
<path d="M651.108 175.578V178.197H648.751V175.578H651.108Z" fill="#FFEE00"/>
<path d="M656.869 165.367V178.067H653.727V171.259C653.727 170.211 653.727 169.688 653.596 169.426C653.596 169.164 653.465 169.033 653.203 169.033C652.941 168.902 652.548 168.902 651.763 168.902H651.501V167.462C653.072 167.069 654.25 166.414 655.036 165.367H656.869Z" fill="#FFEE00"/>
<path d="M665.642 169.686V173.876C665.642 174.792 665.642 175.578 665.511 175.97C665.38 176.363 665.249 176.887 664.856 177.149C664.463 177.542 664.07 177.803 663.678 177.934C663.154 178.065 662.63 178.196 662.107 178.196C661.321 178.196 660.666 178.065 660.274 177.934C659.75 177.803 659.357 177.542 659.095 177.149C658.833 176.756 658.571 176.363 658.441 175.97C658.31 175.578 658.31 174.923 658.31 174.007V169.555C658.31 168.377 658.441 167.46 658.571 166.936C658.833 166.413 659.226 165.889 659.75 165.496C660.404 165.103 661.059 164.972 661.976 164.972C662.63 164.972 663.285 165.103 663.809 165.365C664.332 165.627 664.725 165.889 664.987 166.282C665.249 166.674 665.38 167.067 665.511 167.46C665.642 167.853 665.642 168.769 665.642 169.686ZM662.499 168.638C662.499 167.984 662.499 167.591 662.368 167.329C662.237 167.198 662.107 167.067 661.845 167.067C661.583 167.067 661.452 167.198 661.321 167.329C661.19 167.46 661.19 167.984 661.19 168.638V174.792C661.19 175.578 661.19 175.97 661.321 176.101C661.452 176.232 661.583 176.363 661.845 176.363C662.107 176.363 662.237 176.232 662.368 176.101C662.499 175.97 662.499 175.578 662.499 174.923V168.638Z" fill="#FFEE00"/>
<path d="M620.733 181.861C615.889 181.861 611.83 177.933 611.83 172.958C611.83 168.113 615.758 164.054 620.733 164.054C625.578 164.054 629.636 167.982 629.636 172.958C629.636 177.802 625.578 181.861 620.733 181.861ZM620.733 165.364C616.544 165.364 613.139 168.768 613.139 172.958C613.139 177.147 616.544 180.551 620.733 180.551C624.923 180.551 628.327 177.147 628.327 172.958C628.327 168.768 624.923 165.364 620.733 165.364Z" fill="#FFEE00"/>
<path d="M621.388 177.277C621.126 177.801 620.34 177.801 620.079 177.277L618.245 174.135L616.412 170.993C616.151 170.469 616.543 169.945 617.067 169.945H620.602H624.268C624.792 169.945 625.185 170.6 624.923 170.993L623.09 174.135L621.388 177.277Z" fill="#FFEE00"/>
<path d="M620.078 411.774C619.686 411.774 619.424 411.512 619.424 411.12V194.17C619.424 193.777 619.686 193.515 620.078 193.515C620.471 193.515 620.733 193.777 620.733 194.17V411.12C620.733 411.512 620.471 411.774 620.078 411.774Z" fill="url(#paint7_linear_213_117)"/>
<path d="M1171.81 452.623C1172.34 452.754 1172.6 453.016 1172.86 453.409C1173.12 453.801 1173.25 454.587 1173.25 456.027C1173.25 457.075 1173.12 457.86 1172.86 458.384C1172.6 458.908 1172.2 459.431 1171.68 459.693C1171.16 459.955 1170.37 460.086 1169.46 460.086C1168.41 460.086 1167.62 459.955 1167.1 459.562C1166.57 459.169 1166.18 458.777 1165.92 458.253C1165.79 457.729 1165.66 456.944 1165.66 455.634V454.587H1168.8V456.682C1168.8 457.205 1168.8 457.598 1168.93 457.729C1169.06 457.86 1169.19 457.991 1169.32 457.991C1169.59 457.991 1169.72 457.86 1169.85 457.729C1169.98 457.598 1169.98 457.075 1169.98 456.289V455.372C1169.98 454.849 1169.98 454.587 1169.85 454.325C1169.72 454.063 1169.59 453.932 1169.32 453.932C1169.06 453.801 1168.67 453.801 1168.01 453.801V451.968C1168.8 451.968 1169.19 451.968 1169.46 451.837C1169.59 451.837 1169.72 451.706 1169.85 451.445C1169.98 451.314 1169.98 450.921 1169.98 450.528V449.873C1169.98 449.481 1169.98 449.088 1169.85 448.957C1169.72 448.826 1169.59 448.695 1169.46 448.695C1169.19 448.695 1169.06 448.826 1169.06 448.957C1168.93 449.088 1168.93 449.481 1168.93 449.873V450.921H1165.79V449.873C1165.79 448.695 1166.05 447.779 1166.57 447.386C1167.1 446.993 1168.01 446.731 1169.19 446.731C1170.76 446.731 1171.68 446.993 1172.34 447.648C1172.86 448.302 1173.12 449.088 1173.12 450.135C1173.12 450.79 1172.99 451.314 1172.86 451.706C1172.6 452.099 1172.2 452.361 1171.81 452.623Z" fill="#FFEE00"/>
<path d="M1181.89 451.445V455.634C1181.89 456.551 1181.89 457.336 1181.76 457.729C1181.63 458.122 1181.5 458.646 1181.11 458.908C1180.72 459.3 1180.32 459.562 1179.93 459.693C1179.41 459.824 1178.88 459.955 1178.36 459.955C1177.57 459.955 1176.92 459.824 1176.53 459.693C1176 459.562 1175.61 459.3 1175.35 458.908C1175.09 458.515 1174.82 458.122 1174.69 457.729C1174.56 457.336 1174.56 456.682 1174.56 455.765V451.314C1174.56 450.135 1174.69 449.219 1174.82 448.695C1175.09 448.171 1175.48 447.648 1176 447.255C1176.66 446.862 1177.31 446.731 1178.23 446.731C1178.88 446.731 1179.54 446.862 1180.06 447.124C1180.58 447.386 1180.98 447.648 1181.24 448.04C1181.5 448.433 1181.63 448.826 1181.76 449.219C1181.76 449.743 1181.89 450.397 1181.89 451.445ZM1178.62 450.397C1178.62 449.743 1178.62 449.35 1178.49 449.088C1178.49 448.957 1178.23 448.826 1177.97 448.826C1177.7 448.826 1177.57 448.957 1177.44 449.088C1177.31 449.219 1177.31 449.743 1177.31 450.397V456.551C1177.31 457.336 1177.31 457.729 1177.44 457.86C1177.57 457.991 1177.7 458.122 1177.97 458.122C1178.23 458.122 1178.36 457.991 1178.49 457.86C1178.62 457.729 1178.62 457.336 1178.62 456.682V450.397Z" fill="#FFEE00"/>
<path d="M1185.17 457.204V459.822H1182.81V457.204H1185.17Z" fill="#FFEE00"/>
<path d="M1190.93 447.126V459.826H1187.79V453.018C1187.79 451.97 1187.79 451.446 1187.65 451.185C1187.65 450.923 1187.52 450.792 1187.26 450.792C1187 450.661 1186.61 450.661 1185.82 450.661H1185.56V449.221C1187.13 448.828 1188.31 448.173 1189.09 447.126H1190.93Z" fill="#FFEE00"/>
<path d="M1198.91 457.729V459.955H1191.98V458.122C1194.07 454.718 1195.25 452.623 1195.64 451.837C1196.03 451.052 1196.16 450.397 1196.16 450.004C1196.16 449.612 1196.16 449.35 1196.03 449.219C1195.9 449.088 1195.77 448.957 1195.51 448.957C1195.25 448.957 1195.12 449.088 1194.99 449.219C1194.86 449.35 1194.86 449.742 1194.86 450.397V451.575H1191.98V451.052C1191.98 450.397 1191.98 449.742 1192.11 449.35C1192.24 448.957 1192.37 448.564 1192.63 448.171C1192.89 447.778 1193.28 447.517 1193.81 447.255C1194.33 446.993 1194.86 446.993 1195.51 446.993C1196.82 446.993 1197.74 447.255 1198.39 447.909C1199.05 448.564 1199.31 449.35 1199.31 450.266C1199.31 451.052 1199.18 451.706 1198.78 452.623C1198.39 453.408 1197.34 455.111 1195.51 457.86H1198.91V457.729Z" fill="#FFEE00"/>
<path d="M1153.74 463.49C1148.9 463.49 1144.84 459.562 1144.84 454.587C1144.84 449.742 1148.77 445.684 1153.74 445.684C1158.59 445.684 1162.65 449.611 1162.65 454.587C1162.65 459.562 1158.59 463.49 1153.74 463.49ZM1153.74 447.124C1149.55 447.124 1146.15 450.528 1146.15 454.718C1146.15 458.907 1149.55 462.312 1153.74 462.312C1157.93 462.312 1161.34 458.907 1161.34 454.718C1161.21 450.528 1157.8 447.124 1153.74 447.124Z" fill="#FFEE00"/>
<path d="M1154.27 459.039C1154.01 459.563 1153.22 459.563 1152.96 459.039L1151.13 455.897L1149.29 452.754C1149.03 452.23 1149.42 451.707 1149.95 451.707H1153.48H1157.15C1157.67 451.707 1158.06 452.361 1157.8 452.754L1155.97 455.897L1154.27 459.039Z" fill="#FFEE00"/>
<path d="M1153.48 584.467C1153.09 584.467 1152.83 584.205 1152.83 583.812V470.952C1152.83 470.559 1153.09 470.297 1153.48 470.297C1153.87 470.297 1154.14 470.559 1154.14 470.952V583.812C1154.14 584.074 1153.87 584.467 1153.48 584.467Z" fill="url(#paint8_linear_213_117)"/>
<path d="M1178.88 11.9159V14.1417H1171.94V12.3087C1174.04 8.90451 1175.22 6.80964 1175.61 6.02406C1176 5.23849 1176.13 4.58384 1176.13 4.19106C1176.13 3.79827 1176.13 3.53641 1176 3.40548C1175.87 3.27455 1175.74 3.14362 1175.48 3.14362C1175.22 3.14362 1175.09 3.27455 1174.95 3.40548C1174.82 3.53641 1174.82 3.9292 1174.82 4.58384V5.76221H1171.94V5.23849C1171.94 4.58384 1171.94 3.9292 1172.07 3.53641C1172.2 3.14362 1172.34 2.75084 1172.6 2.35805C1172.86 1.96526 1173.25 1.7034 1173.78 1.44155C1174.3 1.17969 1174.82 1.17969 1175.48 1.17969C1176.79 1.17969 1177.7 1.44155 1178.36 2.09619C1179.01 2.75084 1179.27 3.53641 1179.27 4.45292C1179.27 5.23849 1179.14 5.89314 1178.75 6.80964C1178.36 7.72614 1177.31 9.29729 1175.48 12.0468H1178.88V11.9159Z" fill="#FFEE00"/>
<path d="M1180.06 10.7375H1183.2C1183.2 11.3922 1183.2 11.654 1183.2 11.9159C1183.2 12.1777 1183.33 12.1777 1183.33 12.3087C1183.46 12.4396 1183.6 12.4396 1183.86 12.4396C1183.99 12.4396 1184.12 12.4396 1184.25 12.3087C1184.38 12.1777 1184.38 12.0468 1184.38 11.9159C1184.38 11.7849 1184.38 11.3922 1184.38 10.9994V8.90451C1184.25 9.29729 1183.99 9.55915 1183.73 9.69008C1183.46 9.82101 1183.07 9.95194 1182.55 9.95194C1182.02 9.95194 1181.5 9.82101 1180.98 9.42822C1180.58 9.16636 1180.19 8.77358 1180.19 8.24986C1180.06 7.85707 1180.06 7.20243 1180.06 6.41685V5.50035C1180.06 4.58384 1180.06 3.9292 1180.19 3.53641C1180.32 3.14362 1180.45 2.75084 1180.72 2.35805C1180.98 1.96526 1181.37 1.7034 1181.89 1.44155C1182.42 1.17969 1183.07 1.17969 1183.73 1.17969C1184.51 1.17969 1185.3 1.31062 1185.82 1.57247C1186.35 1.83433 1186.74 2.09619 1187.13 2.61991C1187.52 3.14362 1187.65 3.53641 1187.65 4.06013C1187.65 4.58384 1187.79 5.50035 1187.79 6.94057V8.77358C1187.79 10.3447 1187.79 11.2612 1187.79 11.7849C1187.79 12.3087 1187.52 12.8324 1187.26 13.2252C1187 13.618 1186.48 14.0107 1185.95 14.2726C1185.43 14.5345 1184.77 14.6654 1183.99 14.6654C1183.07 14.6654 1182.42 14.5345 1181.76 14.2726C1181.24 14.0107 1180.85 13.618 1180.58 13.0942C1180.19 12.1777 1180.06 11.5231 1180.06 10.7375ZM1183.33 6.67871C1183.33 7.20243 1183.46 7.59521 1183.6 7.72614C1183.6 7.85707 1183.73 7.85707 1183.99 7.85707C1184.25 7.85707 1184.38 7.72614 1184.51 7.59521C1184.64 7.46428 1184.64 7.0715 1184.64 6.67871V4.45292C1184.64 3.9292 1184.64 3.53641 1184.51 3.40548C1184.38 3.27455 1184.25 3.14362 1183.99 3.14362C1183.86 3.14362 1183.73 3.27455 1183.6 3.40548C1183.46 3.53641 1183.33 3.9292 1183.33 4.45292V6.67871Z" fill="#FFEE00"/>
<path d="M1190.93 11.5227V14.1413H1188.57V11.5227H1190.93Z" fill="#FFEE00"/>
<path d="M1197.47 1.3125V4.06201L1195.51 14.0126H1192.37L1194.59 3.5383H1191.45V1.3125H1197.47Z" fill="#FFEE00"/>
<path d="M1198.13 10.7375H1201.27C1201.27 11.3922 1201.27 11.654 1201.27 11.9159C1201.27 12.0468 1201.4 12.1777 1201.4 12.3087C1201.53 12.4396 1201.66 12.4396 1201.93 12.4396C1202.06 12.4396 1202.19 12.4396 1202.32 12.3087C1202.45 12.1777 1202.45 12.0468 1202.45 11.9159C1202.45 11.7849 1202.45 11.3922 1202.45 10.9994V8.90451C1202.32 9.29729 1202.06 9.55915 1201.79 9.69008C1201.53 9.82101 1201.14 9.95194 1200.62 9.95194C1200.09 9.95194 1199.57 9.82101 1199.04 9.42822C1198.65 9.16636 1198.26 8.77358 1198.26 8.24986C1198.13 7.85707 1198.13 7.20243 1198.13 6.41685V5.50035C1198.13 4.58384 1198.13 3.9292 1198.26 3.53641C1198.39 3.14362 1198.52 2.75084 1198.78 2.35805C1199.04 1.96526 1199.44 1.7034 1199.96 1.44155C1200.49 1.17969 1201.14 1.17969 1201.79 1.17969C1202.71 1.17969 1203.37 1.31062 1203.89 1.57247C1204.41 1.83433 1204.81 2.09619 1205.2 2.61991C1205.59 3.14362 1205.72 3.53641 1205.72 4.06013C1205.72 4.58384 1205.85 5.50035 1205.85 6.94057V8.77358C1205.85 10.3447 1205.85 11.2612 1205.85 11.7849C1205.85 12.3087 1205.59 12.8324 1205.33 13.2252C1205.07 13.618 1204.54 14.0107 1204.02 14.2726C1203.5 14.5345 1202.84 14.6654 1202.06 14.6654C1201.14 14.6654 1200.49 14.5345 1199.83 14.2726C1199.31 14.0107 1198.91 13.618 1198.65 13.0942C1198.26 12.1777 1198.13 11.5231 1198.13 10.7375ZM1201.27 6.67871C1201.27 7.20243 1201.4 7.59521 1201.53 7.72614C1201.66 7.85707 1201.79 7.85707 1201.93 7.85707C1202.19 7.85707 1202.32 7.72614 1202.45 7.59521C1202.58 7.46428 1202.58 7.0715 1202.58 6.67871V4.45292C1202.58 3.9292 1202.58 3.53641 1202.45 3.40548C1202.32 3.27455 1202.19 3.14362 1201.93 3.14362C1201.79 3.14362 1201.66 3.27455 1201.53 3.40548C1201.4 3.53641 1201.27 3.9292 1201.27 4.45292V6.67871Z" fill="#FFEE00"/>
<path d="M1159.9 17.8064C1155.05 17.8064 1150.99 13.8785 1150.99 8.90318C1150.99 4.0588 1154.92 0 1159.9 0C1164.74 0 1168.8 3.92787 1168.8 8.90318C1168.8 13.7476 1164.87 17.8064 1159.9 17.8064ZM1159.9 1.30929C1155.71 1.30929 1152.3 4.71345 1152.3 8.90318C1152.3 13.0929 1155.71 16.4971 1159.9 16.4971C1164.09 16.4971 1167.49 13.0929 1167.49 8.90318C1167.49 4.71345 1164.09 1.30929 1159.9 1.30929Z" fill="#FFEE00"/>
<path d="M1159.24 12.6992C1159.5 13.2229 1160.29 13.2229 1160.55 12.6992L1162.39 9.55692L1164.22 6.41462C1164.48 5.8909 1164.09 5.36719 1163.56 5.36719H1159.9H1156.36C1155.84 5.36719 1155.45 6.02183 1155.71 6.41462L1157.54 9.55692L1159.24 12.6992Z" fill="#FFEE00"/>
<path d="M1159.9 144.675C1159.5 144.675 1159.24 144.413 1159.24 144.02V25.5296C1159.24 25.1369 1159.5 24.875 1159.9 24.875C1160.29 24.875 1160.55 25.1369 1160.55 25.5296V144.02C1160.55 144.413 1160.29 144.675 1159.9 144.675Z" fill="url(#paint9_linear_213_117)"/>
</g>
</g>
<defs>
<linearGradient id="paint0_linear_213_117" x1="-14.2484" y1="372.668" x2="1498.4" y2="372.668" gradientUnits="userSpaceOnUse">
<stop offset="0.0104352"/>
<stop offset="0.0550026" stop-color="#0F0F0F"/>
<stop offset="0.141" stop-color="#373737"/>
<stop offset="0.2597" stop-color="#777777"/>
<stop offset="0.4051" stop-color="#CFCFCF"/>
<stop offset="0.4811" stop-color="white"/>
<stop offset="0.7847" stop-color="white"/>
<stop offset="0.7884" stop-color="#F8F8F8"/>
<stop offset="0.8293" stop-color="#AEAEAE"/>
<stop offset="0.8677" stop-color="#707070"/>
<stop offset="0.9025" stop-color="#404040"/>
<stop offset="0.9329" stop-color="#1D1D1D"/>
<stop offset="0.9578" stop-color="#080808"/>
<stop offset="0.9741"/>
</linearGradient>
<radialGradient id="paint1_radial_213_117" cx="0" cy="0" r="1" gradientUnits="userSpaceOnUse" gradientTransform="translate(921.44 358.236) scale(301.355 301.356)">
<stop offset="0.5444"/>
<stop offset="1" stop-color="white"/>
</radialGradient>
<linearGradient id="paint2_linear_213_117" x1="9.5" y1="456.5" x2="1434.5" y2="407" gradientUnits="userSpaceOnUse">
<stop stop-color="#FFDE36" stop-opacity="0"/>
<stop offset="0.291983" stop-color="#FFDE36"/>
<stop offset="0.750308" stop-color="#FFDE36" stop-opacity="0.51"/>
<stop offset="1" stop-color="#FFDE36" stop-opacity="0"/>
</linearGradient>
<linearGradient id="paint3_linear_213_117" x1="600.904" y1="515.778" x2="600.904" y2="590.066" gradientUnits="userSpaceOnUse">
<stop stop-color="#FFEE00"/>
<stop offset="1"/>
</linearGradient>
<linearGradient id="paint4_linear_213_117" x1="986.776" y1="417.16" x2="986.776" y2="537.721" gradientUnits="userSpaceOnUse">
<stop stop-color="#FFEE00"/>
<stop offset="1"/>
</linearGradient>
<linearGradient id="paint5_linear_213_117" x1="259.189" y1="354.707" x2="259.189" y2="497.48" gradientUnits="userSpaceOnUse">
<stop stop-color="#FFEE00"/>
<stop offset="1"/>
</linearGradient>
<linearGradient id="paint6_linear_213_117" x1="492.437" y1="457.794" x2="492.437" y2="596.58" gradientUnits="userSpaceOnUse">
<stop stop-color="#FFEE00"/>
<stop offset="1"/>
</linearGradient>
<linearGradient id="paint7_linear_213_117" x1="620.055" y1="193.437" x2="620.055" y2="411.752" gradientUnits="userSpaceOnUse">
<stop stop-color="#FFEE00"/>
<stop offset="1"/>
</linearGradient>
<linearGradient id="paint8_linear_213_117" x1="1153.5" y1="470.18" x2="1153.5" y2="584.407" gradientUnits="userSpaceOnUse">
<stop stop-color="#FFEE00"/>
<stop offset="1"/>
</linearGradient>
<linearGradient id="paint9_linear_213_117" x1="1159.91" y1="24.8444" x2="1159.91" y2="144.667" gradientUnits="userSpaceOnUse">
<stop stop-color="#FFEE00"/>
<stop offset="1"/>
</linearGradient>
<clipPath id="clip0_213_117">
<rect width="1452" height="737" fill="white"/>
</clipPath>
</defs>
</svg>
