<svg width="46" height="44" viewBox="0 0 46 44" fill="none" xmlns="http://www.w3.org/2000/svg">
<path d="M20.7437 14.1986C14.7529 14.1986 8.75032 14.1986 2.75954 14.1986C1.95762 14.1986 1.95762 14.1986 1.95762 15.0123C1.95762 18.2318 1.95762 21.4513 1.95762 24.6589C1.95762 25.4255 1.95762 25.4255 2.74774 25.4255C9.23383 25.4255 15.7199 25.4255 22.206 25.4255C23.2202 25.4255 23.6447 25.7203 23.6565 26.3925C23.6565 27.0765 23.232 27.3713 22.2296 27.3713C15.7435 27.3713 9.25742 27.3713 2.77133 27.3713C1.96941 27.3713 1.96941 27.3713 1.96941 28.185C1.96941 30.6025 1.96941 33.0083 1.96941 35.4258C1.96941 37.4542 3.12512 38.5981 5.15349 38.5981C10.8377 38.5981 16.51 38.5981 22.1942 38.5981C22.4301 38.5981 22.6777 38.5745 22.9018 38.6217C23.3735 38.7278 23.6565 39.0345 23.6565 39.5416C23.6683 40.0604 23.3971 40.4024 22.9018 40.5204C22.7013 40.5675 22.4772 40.5439 22.2532 40.5439C16.4983 40.5439 10.7315 40.5439 4.9766 40.5439C2.00479 40.5557 0 38.551 0 35.6145C0 25.3901 0 15.1774 0 4.95301C0 2.00479 2.00479 0 4.95301 0C15.5312 0 26.0977 0 36.6759 0C39.5416 0 41.5817 2.02838 41.5817 4.89405C41.5817 10.0475 41.5817 15.2128 41.5817 20.3663C41.5817 20.5786 41.6053 20.8027 41.5463 21.0149C41.4048 21.5102 41.0511 21.7579 40.5322 21.7225C40.0369 21.6871 39.6595 21.3333 39.6477 20.8027C39.6241 20.0833 39.6359 19.3521 39.6359 18.621C39.6359 17.3827 39.6123 16.1445 39.6477 14.918C39.6713 14.3402 39.4708 14.1868 38.9165 14.1868C32.8432 14.1986 26.7934 14.1986 20.7437 14.1986ZM20.7909 12.241C26.8052 12.241 32.8196 12.241 38.8222 12.241C39.6123 12.241 39.6123 12.241 39.6123 11.4273C39.6123 9.35176 39.6123 7.27621 39.6123 5.18887C39.6123 3.07794 38.492 1.95762 36.3693 1.95762C25.9797 1.95762 15.5784 1.95762 5.18887 1.95762C3.06615 1.95762 1.94583 3.07794 1.94583 5.20066C1.94583 7.27621 1.94583 9.35176 1.94583 11.4391C1.94583 12.2528 1.94583 12.2528 2.74774 12.2528C8.77391 12.241 14.7765 12.241 20.7909 12.241Z" fill="#F2B80C"/>
<path d="M33.2087 22.243C33.9044 22.184 34.2582 22.4317 34.4705 22.8916C34.5884 23.1628 34.6592 23.4458 34.7653 23.7171C34.8243 23.8822 34.8715 24.0709 35.0837 24.0944C35.3196 24.118 35.3668 23.9176 35.4375 23.7642C35.4965 23.6581 35.5436 23.552 35.5908 23.4458C36.0861 22.4081 36.3809 22.2312 37.4777 22.526C38.7867 22.868 40.0721 23.3279 41.1806 24.1534C41.9354 24.7077 42.0179 25.0733 41.6406 25.9106C41.5108 26.2054 41.1571 26.5238 41.4047 26.8186C41.6877 27.1606 42.0651 26.8068 42.3717 26.7125C43.2798 26.4294 43.5746 26.512 44.0935 27.3257C44.919 28.6229 45.4025 30.0381 45.6266 31.5476C45.7091 32.1136 45.4497 32.491 44.9426 32.715C44.6595 32.8448 44.3411 32.9155 44.0699 33.057C43.7397 33.2221 43.6925 33.4462 44.0345 33.6703C44.1289 33.7292 44.2468 33.7764 44.3529 33.8236C45.4615 34.3543 45.6148 34.6255 45.3082 35.8048C44.9544 37.1138 44.4827 38.3874 43.6572 39.4842C43.1383 40.1682 42.7727 40.2507 41.9826 39.9087C41.6642 39.779 41.2986 39.3662 40.9802 39.6611C40.6971 39.9205 41.0509 40.3097 41.1453 40.6399C41.4283 41.5479 41.334 41.831 40.5202 42.3498C39.3056 43.1164 37.9848 43.5881 36.5814 43.8357C35.6852 44.0008 35.3432 43.765 35.013 42.9159C34.8832 42.5975 34.9304 42.055 34.4587 42.0432C34.0813 42.0314 34.0813 42.5385 33.928 42.8098C33.5035 43.6235 33.2087 43.824 32.336 43.6235C30.9326 43.3051 29.5882 42.798 28.4089 41.9489C27.6542 41.4064 27.5717 41.029 27.9372 40.1917C28.067 39.8969 28.4089 39.5667 28.1731 39.2837C27.9019 38.9535 27.5127 39.2955 27.2061 39.3898C26.298 39.6729 25.9796 39.5667 25.4843 38.7766C24.706 37.5501 24.2343 36.2057 23.9866 34.7788C23.8451 33.9533 24.0574 33.5995 24.8475 33.2811C25.1777 33.1514 25.732 33.175 25.7673 32.774C25.8027 32.3023 25.2131 32.3023 24.8947 32.1254C24.2343 31.7362 24.022 31.4414 24.1871 30.6867C24.5055 29.2361 25.0126 27.8682 25.8971 26.6535C26.4513 25.9106 26.8051 25.8398 27.666 26.229C27.9608 26.3587 28.291 26.7125 28.574 26.4766C28.9043 26.1936 28.5387 25.828 28.4443 25.5096C28.1613 24.578 28.2556 24.2595 29.0694 23.7407C30.4137 22.9034 31.8525 22.4317 33.2087 22.243ZM27.8901 32.6797C27.8665 33.0099 27.8547 33.3401 27.8193 33.6703C27.7721 34.1538 27.5009 34.4486 27.0646 34.6255C26.015 35.05 26.015 35.05 26.416 36.1114C26.4631 36.2175 26.4985 36.3355 26.5457 36.4416C26.9113 37.3497 26.923 37.3614 27.8429 37.043C28.3264 36.8661 28.7627 36.8308 29.1519 37.2199C29.5175 37.5973 29.8949 37.9747 30.2486 38.3756C30.5435 38.7058 30.6496 39.0714 30.4963 39.5195C30.3784 39.8969 29.9066 40.2389 30.1661 40.6281C30.4019 40.9819 30.909 41.0172 31.31 41.1941C31.369 41.2177 31.4161 41.2295 31.4751 41.2531C32.3006 41.5597 32.3006 41.5597 32.6898 40.7696C33.0671 40.0031 33.3266 39.8615 34.1757 39.9323C34.553 39.9677 34.9186 40.0148 35.296 40.0148C35.8974 40.0148 36.2394 40.2979 36.4399 40.8403C36.7819 41.7838 36.7937 41.7838 37.7725 41.4418C37.8433 41.4182 37.9258 41.3946 37.9966 41.371C39.1051 40.9701 39.1051 40.9701 38.7867 39.8497C38.5037 38.8591 40.1547 37.102 41.1689 37.3261C41.2278 37.3379 41.2868 37.3614 41.334 37.385C42.5015 37.7742 42.5014 37.7742 42.9614 36.5831C42.9732 36.5595 42.9732 36.5477 42.985 36.5242C43.3505 35.5689 43.3505 35.5571 42.4543 35.109C41.9944 34.8849 41.6524 34.5665 41.7113 34.0241C41.7703 33.5288 41.7585 33.0453 41.7821 32.5617C41.8057 32.0782 41.9944 31.7009 42.4661 31.4886C43.61 30.9815 43.61 30.9815 43.1383 29.8022C43.1147 29.7314 43.0793 29.6607 43.0557 29.5781C42.7019 28.7291 42.7019 28.7291 41.8175 29.0357C41.2986 29.2126 40.8269 29.2715 40.4141 28.8234C40.0839 28.4578 39.7419 28.104 39.4117 27.7502C39.0697 27.3847 38.999 26.9837 39.1759 26.5002C39.6004 25.3917 39.5886 25.3799 38.4565 24.9435C38.3621 24.9082 38.2678 24.8728 38.1853 24.8492C37.289 24.5544 37.4187 24.3539 36.9352 25.3445C36.5578 26.1228 36.2984 26.2408 35.4375 26.1346C35.1309 26.0992 34.8125 26.0992 34.4941 26.0874C33.7157 26.0757 33.4445 25.887 33.1733 25.1676C32.8431 24.2949 32.8431 24.2949 31.9468 24.5897C31.8525 24.6251 31.7581 24.6605 31.6756 24.6959C30.5435 25.1322 30.5199 25.1322 30.8855 26.2879C31.2157 27.3493 30.2486 27.6559 29.7651 28.222C29.3996 28.6701 28.9278 28.9531 28.3146 28.7055C28.1141 28.6229 27.9136 28.5522 27.725 28.446C27.3948 28.2691 27.1707 28.3281 27.0292 28.6819C26.8523 29.1418 26.6754 29.5899 26.4749 30.0499C26.3098 30.4154 26.4277 30.6631 26.7933 30.781C27.7014 31.0876 28.0905 31.7009 27.8901 32.6797Z" fill="#F2B80C"/>
<path d="M12.3001 20.7793C10.8142 20.7793 9.31654 20.7793 7.83064 20.7793C7.04051 20.7793 6.62776 20.4491 6.61597 19.8241C6.60418 19.1873 7.01693 18.8335 7.79526 18.8335C10.8024 18.8335 13.7978 18.8335 16.805 18.8335C17.5834 18.8335 17.9961 19.1873 17.9961 19.8241C17.9843 20.4491 17.5716 20.7793 16.7814 20.7911C15.2837 20.7911 13.7978 20.7793 12.3001 20.7793Z" fill="#F2B80C"/>
<path d="M12.2648 33.9629C10.7789 33.9629 9.28116 33.9629 7.79526 33.9629C7.01693 33.9629 6.60418 33.5973 6.61597 32.9723C6.62776 32.3709 7.04051 32.0171 7.77167 32.0171C10.7789 32.0171 13.7743 32.0171 16.7814 32.0171C17.5716 32.0171 17.9843 32.3591 17.9961 32.9841C18.0079 33.6209 17.5716 33.9747 16.7461 33.9747C15.2484 33.9747 13.7625 33.9629 12.2648 33.9629Z" fill="#F2B80C"/>
<path d="M28.3502 20.7797C27.7959 20.7797 27.3831 20.3787 27.3713 19.8363C27.3596 19.282 27.7605 18.8575 28.303 18.8457C28.8808 18.8221 29.3172 19.2466 29.3172 19.8245C29.3054 20.3669 28.9044 20.7679 28.3502 20.7797Z" fill="#F2B80C"/>
<path d="M31.1685 20.7796C30.6142 20.7796 30.2015 20.3787 30.1897 19.8244C30.1779 19.2465 30.6142 18.822 31.1921 18.8338C31.7463 18.8456 32.1473 19.2583 32.1355 19.8126C32.1355 20.3669 31.7228 20.7796 31.1685 20.7796Z" fill="#F2B80C"/>
<path d="M34.0109 18.8336C34.5651 18.8454 34.9661 19.2463 34.9661 19.8006C34.9661 20.3548 34.5651 20.7676 34.0109 20.7676C33.433 20.7794 33.0085 20.343 33.0203 19.7652C33.0438 19.2345 33.4566 18.8336 34.0109 18.8336Z" fill="#F2B80C"/>
<path d="M12.2648 8.5386C10.7789 8.5386 9.28116 8.5386 7.79526 8.5386C7.01693 8.5386 6.60418 8.17302 6.61597 7.548C6.62776 6.94656 7.04051 6.59277 7.77167 6.59277C10.7907 6.59277 13.8214 6.59277 16.8404 6.59277C17.5716 6.59277 17.9843 6.94656 17.9961 7.55979C17.9961 8.17302 17.5951 8.5386 16.864 8.5386C15.3309 8.55039 13.7978 8.5386 12.2648 8.5386Z" fill="#F2B80C"/>
<path d="M29.3047 7.53541C29.3165 8.08967 28.9155 8.51422 28.3731 8.5378C27.7952 8.56139 27.3589 8.13684 27.3589 7.57079C27.3589 7.01652 27.7598 6.60377 28.3141 6.60377C28.8802 6.59198 29.2929 6.99293 29.3047 7.53541Z" fill="#F2B80C"/>
<path d="M31.1923 8.53705C30.638 8.54884 30.2135 8.14788 30.2017 7.60541C30.1781 7.05114 30.579 6.6266 31.1215 6.60301C31.6994 6.57943 32.1475 6.99218 32.1475 7.55824C32.1475 8.1125 31.7465 8.52525 31.1923 8.53705Z" fill="#F2B80C"/>
<path d="M34.9662 7.58185C34.9545 8.13612 34.5417 8.53707 33.9992 8.53707C33.4214 8.53707 33.0086 8.10074 33.0322 7.52288C33.0558 6.98041 33.4803 6.57945 34.0346 6.60304C34.5771 6.61483 34.978 7.02758 34.9662 7.58185Z" fill="#F2B80C"/>
<path d="M40.7448 33.0908C40.7448 36.3102 38.1032 38.9636 34.872 38.999C31.6761 39.0344 28.9048 36.2749 28.9284 33.079C28.952 29.8477 31.6054 27.2061 34.8248 27.1943C38.1032 27.1943 40.7448 29.8242 40.7448 33.0908ZM34.8484 29.2227C32.6667 29.2227 30.9567 30.9091 30.9567 33.0908C30.9567 35.2253 32.6667 36.9588 34.7894 36.9706C37.0183 36.9824 38.7047 35.3078 38.7165 33.0908C38.7283 30.8737 37.0655 29.2227 34.8484 29.2227Z" fill="#F2B80C"/>
</svg>
