<svg width="44" height="44" viewBox="0 0 44 44" fill="none" xmlns="http://www.w3.org/2000/svg">
<g clip-path="url(#clip0_213_384)">
<path d="M38.4188 5.14238L22.4557 0.0712661C22.1592 -0.0231043 21.8404 -0.0231043 21.5438 0.0712661L5.58084 5.14238C4.9555 5.3409 4.53076 5.92149 4.53076 6.57764V26.5314C4.53076 30.6979 7.42573 34.9061 13.1352 39.0388C17.205 41.9849 21.2155 43.7933 21.3844 43.8689C21.5801 43.9566 21.7899 44.0003 21.9997 44.0003C22.2094 44.0003 22.4192 43.9565 22.6149 43.8689C22.7838 43.7933 26.7943 41.9849 30.8641 39.0388C36.5736 34.9059 39.4686 30.6978 39.4686 26.5314V6.57764C39.4689 5.92149 39.0441 5.3409 38.4188 5.14238ZM36.457 26.5314C36.457 32.6584 26.5486 38.6642 21.9992 40.835C17.4497 38.6679 7.54262 32.6689 7.54262 26.5314V7.67927L21.9998 3.08653L36.457 7.67927V26.5314Z" fill="#F2B80C"/>
<path d="M20.4953 10.8199V13.3223C18.1166 13.5187 16.1738 15.5384 16.1738 17.9089C16.1738 20.4046 18.3266 22.5129 20.8746 22.5129H23.1276C24.0116 22.5129 24.8168 23.2719 24.8168 24.1052C24.8168 24.9383 24.0116 25.6969 23.1276 25.6969H17.6798C16.848 25.6969 16.1738 26.3711 16.1738 27.2029C16.1738 28.0346 16.848 28.7088 17.6798 28.7088H20.4953V31.0199C20.4953 31.8516 21.1695 32.5258 22.0012 32.5258C22.8329 32.5258 23.5072 31.8516 23.5072 31.0199V28.6916C25.8858 28.495 27.8286 26.4754 27.8286 24.1051C27.8286 21.6094 25.6757 19.5009 23.1276 19.5009H20.8746C19.9907 19.5009 19.1857 18.7421 19.1857 17.9088C19.1857 17.0756 19.9907 16.3169 20.8746 16.3169H26.3227C27.1544 16.3169 27.8286 15.6427 27.8286 14.811C27.8286 13.9793 27.1544 13.3051 26.3227 13.3051H23.5072V10.8199C23.5072 9.98819 22.8329 9.31396 22.0012 9.31396C21.1695 9.31396 20.4953 9.98819 20.4953 10.8199Z" fill="#F2B80C"/>
</g>
<defs>
<clipPath id="clip0_213_384">
<rect width="44" height="44" fill="white"/>
</clipPath>
</defs>
</svg>
