<svg width="51" height="54" viewBox="0 0 51 54" fill="none" xmlns="http://www.w3.org/2000/svg">
<g clip-path="url(#clip0_213_372)">
<circle cx="25.0342" cy="30.5" r="13" stroke="#F2B80C"/>
<path d="M37.2549 49.3228C41.9338 47.7869 43.9742 45.2039 43.6928 41.818C43.6576 41.5387 43.4114 41.2944 43.1299 41.3293C42.954 41.3293 42.7429 41.3642 42.567 41.3642C42.0745 41.3991 41.6524 41.0151 41.6524 40.5264V27.5413C41.6524 26.9828 42.1097 26.4941 42.7078 26.4941H44.1501C44.4316 26.4941 44.6427 26.2847 44.6778 26.0054C44.9593 20.9091 43.6576 16.3364 40.4914 12.2873C39.9285 11.5891 39.436 11.4146 38.451 11.5542C37.29 11.7288 35.8125 11.5542 34.8274 10.9259C28.108 6.73715 21.5997 6.84187 14.9859 11.1703C14.036 11.7986 12.5585 12.008 11.3975 11.8684C10.4125 11.7288 9.88478 11.9382 9.35708 12.6363C6.40196 16.6156 5.20584 21.0487 5.4521 26.0054C5.4521 26.2498 5.66318 26.4243 5.90944 26.4243H7.28146C7.9147 26.4243 8.4424 26.9479 8.4424 27.5762V40.4915C8.4424 40.9453 8.0906 41.3293 7.59808 41.3642C4.85404 41.5387 2.21553 40.0377 0.843511 37.4896C-0.704411 34.5924 -0.24707 30.8923 2.18035 28.6932C3.30611 27.6809 3.62273 26.6337 3.58755 25.2375C3.41165 19.9317 4.95958 15.2194 8.2665 11.0306C8.58312 10.6467 8.68866 9.87872 8.58312 9.35513C8.23132 7.43528 8.7942 6.00412 10.3773 4.81731C18.7502 -1.39601 30.3947 -1.60544 38.9435 4.25881C40.7025 5.48053 41.582 6.94659 41.0191 9.14569C40.9136 9.56456 41.0895 10.158 41.3709 10.507C45.1 14.9401 46.7183 20.0714 46.472 25.796C46.4369 26.8432 46.6831 27.5762 47.5274 28.3441C51.2565 31.6253 50.9047 37.2103 46.859 40.0726C46.0147 40.666 45.6629 41.1896 45.6629 42.2717C45.6629 46.4605 43.2003 48.9737 39.5064 50.4747C38.3806 50.9285 37.3956 51.3125 36.8327 52.6389C36.2346 54.0002 34.7571 54.2446 33.3499 53.8955C31.9427 53.5465 30.6762 52.9182 30.3244 51.3474C30.0078 50.0209 30.7817 49.1134 31.8371 48.4851C33.2092 47.6822 34.6515 47.2633 36.0939 48.2756C36.4809 48.52 36.8327 48.9388 37.2549 49.3228ZM25.0122 1.78046C20.1925 1.88518 15.7247 3.21162 11.7845 6.07394C10.2718 7.15603 9.91996 8.30794 10.7291 9.42494C11.5382 10.5419 12.7344 10.5768 14.2471 9.56456C21.2831 4.92203 28.3895 4.85222 35.531 9.35513C37.079 10.3325 38.3103 10.2278 39.0139 9.04097C39.8582 7.60981 39.1546 6.66734 37.9585 5.82959C34.0887 3.14181 29.7615 1.88518 25.0122 1.78046ZM43.4114 38.816C43.4114 39.1302 43.728 39.3745 44.0446 39.3047C46.9294 38.5019 48.5125 36.0933 48.1959 33.1612C47.9144 30.7527 46.0499 28.7979 43.9039 28.6234C43.6576 28.5885 43.4114 28.7979 43.4114 29.0772V38.816ZM6.57786 38.816V29.0423C6.57786 28.7281 6.29642 28.5187 5.9798 28.5885C3.37647 29.2517 1.79337 31.381 1.86373 34.1037C1.93409 36.6867 3.58755 38.7462 5.9798 39.3047C6.29642 39.3396 6.57786 39.0953 6.57786 38.816ZM33.7369 49.5322C32.3648 49.8464 32.3297 51.8361 33.7017 52.1502C34.1238 52.2549 34.5812 52.1502 35.0737 51.8011C35.3903 51.5568 35.4607 50.2304 35.1792 49.9511C34.6515 49.4973 34.159 49.4275 33.7369 49.5322Z" fill="#F2B80C"/>
<path d="M20.9108 32.872C20.9108 33.4865 20.894 34.1958 20.8605 35H19.2258C19.2258 31.7681 18.9952 29.2911 18.5342 27.569L20.3575 27.1366C20.5168 27.8042 20.6467 28.578 20.7473 29.458C21.0407 29.5642 21.3928 29.6174 21.8035 29.6174C22.3149 29.6174 22.7592 29.5377 23.1364 29.3784V29.1849C23.1364 28.6994 23.0233 28.0583 22.7969 27.2617L24.3436 27C24.5029 27.5993 24.5825 28.2518 24.5825 28.9573C24.5825 29.5794 24.4903 30.1332 24.3059 30.6188C24.0711 30.8312 23.7233 31.0057 23.2622 31.1422C22.8011 31.2788 22.3317 31.3471 21.8538 31.3471C21.5101 31.3471 21.1874 31.3129 20.8856 31.2447C20.9024 31.973 20.9108 32.5154 20.9108 32.872Z" fill="#F2B80C"/>
<path d="M28.3032 32.872C28.3032 33.4865 28.2864 34.1958 28.2529 35H26.6182C26.6182 31.7681 26.3877 29.2911 25.9266 27.569L27.7499 27.1366C27.9679 28.1 28.1188 29.1128 28.2026 30.175C28.5463 30.3495 29.0325 30.4443 29.6612 30.4595C29.2505 30.0574 29.0451 29.5946 29.0451 29.0711C29.0451 28.4642 29.2421 27.9862 29.6361 27.6373C30.0301 27.2883 30.5414 27.1138 31.1702 27.1138C31.6815 27.1138 32.2642 27.2314 32.918 27.4666L32.5785 28.6956C32.1342 28.5666 31.7863 28.5021 31.5348 28.5021C31.2666 28.5021 31.0444 28.5742 30.8684 28.7183C30.6923 28.8549 30.6043 29.037 30.6043 29.2646C30.6043 29.5453 30.7007 29.7729 30.8935 29.9474C31.0863 30.1219 31.2833 30.2091 31.4845 30.2091C31.6103 30.2091 31.7528 30.1939 31.9121 30.1636C32.0797 30.1257 32.3103 30.065 32.6037 29.9815C32.8971 29.8981 33.1108 29.8412 33.245 29.8108L33.5342 31.1309C32.721 31.3888 32.0127 31.5785 31.4091 31.6999C30.8139 31.8137 30.181 31.8706 29.5103 31.8706C29.0493 31.8706 28.6427 31.8288 28.2906 31.7454C28.299 31.9957 28.3032 32.3713 28.3032 32.872Z" fill="#F2B80C"/>
</g>
<defs>
<clipPath id="clip0_213_372">
<rect width="50.0964" height="54" fill="white"/>
</clipPath>
</defs>
</svg>
