<svg width="94" height="94" viewBox="0 0 94 94" fill="none" xmlns="http://www.w3.org/2000/svg">
<path d="M20.0096 64.2532C20.2584 63.8417 20.6412 63.7651 21.0814 63.7651C22.4883 63.7651 23.8855 63.7459 25.2924 63.7747C25.7613 63.7842 25.924 63.6598 25.924 63.1622C25.9049 59.8413 25.9145 56.5299 25.9145 53.209C25.9145 52.0702 26.0963 51.8979 27.2543 51.8979C30.5082 51.8979 33.7621 51.8979 37.016 51.8979C37.7816 51.8979 37.7816 51.8979 37.7816 51.1036C37.7816 49.7829 37.7816 48.4526 37.7816 47.1319C37.7816 46.194 38.0209 45.9547 38.9779 45.9547C42.2988 45.9547 45.6102 45.9547 48.9311 45.9547C49.6488 45.9547 49.6488 45.9547 49.6488 45.2083C49.6488 42.3659 49.6488 39.5331 49.6488 36.6907C49.6488 35.8293 49.8881 35.5901 50.759 35.5901C54.4914 35.5901 58.2238 35.5901 61.9562 35.5901C62.9133 35.5901 63.1047 35.7911 63.1047 36.7385C63.1047 45.5145 63.1047 54.2809 63.1047 63.0569C63.1047 63.7651 63.1047 63.7651 63.8129 63.7651C65.1814 63.7651 66.5596 63.7651 67.9281 63.7651C68.3684 63.7651 68.7512 63.8608 69 64.2532C69 64.4733 69 64.703 69 64.9231C68.7895 65.2485 68.4832 65.3442 68.1004 65.3442C52.3668 65.3346 36.6332 65.3346 20.8996 65.3442C20.5168 65.3442 20.2105 65.2485 20 64.9231C20.0096 64.6934 20.0096 64.4733 20.0096 64.2532ZM61.5256 50.4815C61.5256 46.2514 61.516 42.0309 61.5352 37.8008C61.5352 37.3319 61.4299 37.1596 60.9322 37.1596C57.8984 37.1788 54.8742 37.1788 51.8404 37.1596C51.3906 37.1596 51.2375 37.2745 51.2375 37.7434C51.2471 46.2131 51.2471 54.6733 51.2375 63.143C51.2375 63.6407 51.4002 63.7555 51.8691 63.7555C54.8551 63.7364 57.8314 63.7459 60.8174 63.7459C61.5352 63.7459 61.5352 63.7459 61.5352 63.0473C61.5256 58.8651 61.5256 54.6733 61.5256 50.4815ZM39.3703 55.6208C39.3703 58.1282 39.3799 60.626 39.3607 63.1334C39.3607 63.5928 39.4564 63.7747 39.9637 63.7747C43.007 63.7555 46.06 63.7555 49.1033 63.7747C49.5148 63.7747 49.6584 63.6598 49.6584 63.2387C49.6488 58.1856 49.6488 53.1229 49.6584 48.0698C49.6584 47.6391 49.5053 47.5338 49.1033 47.5338C46.0408 47.553 42.9783 47.553 39.9158 47.5338C39.4564 47.5338 39.3607 47.6965 39.3607 48.1176C39.3799 50.6059 39.3703 53.1133 39.3703 55.6208ZM37.7816 58.6067C37.7816 57.0563 37.7721 55.5155 37.7912 53.9651C37.7912 53.5918 37.6859 53.4674 37.3031 53.4674C34.1928 53.477 31.0824 53.477 27.9721 53.4674C27.6275 53.4674 27.4936 53.5727 27.4936 53.9268C27.5031 57.0372 27.5031 60.1475 27.4936 63.2579C27.4936 63.6215 27.6084 63.7651 27.9816 63.7651C31.0729 63.7555 34.1641 63.7555 37.2648 63.7651C37.6572 63.7651 37.7912 63.6407 37.7912 63.2387C37.7721 61.6979 37.7816 60.1475 37.7816 58.6067Z" fill="#F2B80C"/>
<path d="M52.8264 20.0006C53.0178 19.991 53.2283 20.1824 53.4293 20.393C54.3098 21.2734 55.1998 22.1443 56.0612 23.0344C56.3196 23.3023 56.4822 23.3023 56.7406 23.0344C57.6403 22.1061 58.5494 21.1969 59.4778 20.2973C59.9754 19.8092 60.6645 19.9623 60.8559 20.5748C60.9707 20.9672 60.7793 21.2447 60.5209 21.5031C59.6596 22.3549 58.827 23.2354 57.9465 24.0584C57.5828 24.4029 57.6115 24.5943 57.9561 24.9197C58.7791 25.6949 59.5639 26.5084 60.3678 27.3123C60.4922 27.4367 60.6166 27.5611 60.7219 27.7047C60.9899 28.0779 60.9516 28.4895 60.6358 28.7766C60.3487 29.035 59.8989 29.0445 59.5926 28.767C59.2194 28.4225 58.8653 28.0588 58.5016 27.6951C57.9274 27.1209 57.334 26.5563 56.7885 25.9629C56.5205 25.6758 56.3578 25.6471 56.0707 25.9438C55.2572 26.7955 54.4055 27.6186 53.5729 28.4512C53.4867 28.5373 53.391 28.633 53.2953 28.7191C52.9221 29.035 52.4436 29.0445 52.1278 28.7383C51.7928 28.4129 51.8024 27.9822 52.1852 27.5994C53.0561 26.7094 53.9365 25.8385 54.817 24.958C55.286 24.4891 55.286 24.4891 54.8074 24.001C53.927 23.1205 53.0465 22.24 52.1756 21.3596C51.9172 21.1012 51.8119 20.7949 51.9842 20.4504C52.1086 20.1441 52.3574 20.0102 52.8264 20.0006Z" fill="#F2B80C"/>
<g filter="url(#filter0_f_213_348)">
<rect x="31.1709" y="31.1707" width="31.659" height="31.659" rx="8" fill="#F2B80C" fill-opacity="0.3"/>
</g>
<defs>
<filter id="filter0_f_213_348" x="0.170898" y="0.170715" width="93.6592" height="93.6591" filterUnits="userSpaceOnUse" color-interpolation-filters="sRGB">
<feFlood flood-opacity="0" result="BackgroundImageFix"/>
<feBlend mode="normal" in="SourceGraphic" in2="BackgroundImageFix" result="shape"/>
<feGaussianBlur stdDeviation="15.5" result="effect1_foregroundBlur_213_348"/>
</filter>
</defs>
</svg>
