<svg width="57" height="47" viewBox="0 0 57 47" fill="none" xmlns="http://www.w3.org/2000/svg">
<path fill-rule="evenodd" clip-rule="evenodd" d="M45.7516 2.4684C43.6437 2.4684 41.935 4.17719 41.935 6.28509C41.935 8.39299 43.6437 10.1018 45.7516 10.1018C47.8595 10.1018 49.5683 8.39299 49.5683 6.28509C49.5683 4.17719 47.8595 2.4684 45.7516 2.4684ZM40.5879 6.28509C40.5879 3.43323 42.8998 1.12134 45.7516 1.12134C48.6035 1.12134 50.9154 3.43323 50.9154 6.28509C50.9154 9.13695 48.6035 11.4488 45.7516 11.4488C42.8998 11.4488 40.5879 9.13695 40.5879 6.28509Z" fill="#F2B80C"/>
<path fill-rule="evenodd" clip-rule="evenodd" d="M42.4018 12.7959C42.413 12.7959 42.4243 12.7959 42.4359 12.7959L49.1013 12.7959C49.3532 12.7959 49.5265 12.7958 49.69 12.8118C50.7974 12.9197 51.78 13.5676 52.3154 14.543C52.3944 14.687 52.4626 14.8462 52.5619 15.0778L52.5753 15.1091C52.5859 15.1338 52.5963 15.1581 52.6065 15.182C52.8139 15.6656 52.9527 15.9893 53.0191 16.2603C53.4855 18.1641 52.2338 20.0625 50.3001 20.3837C50.0249 20.4295 49.6726 20.4294 49.1464 20.4293C49.1204 20.4293 49.094 20.4293 49.0672 20.4293H42.4359C42.409 20.4293 42.3826 20.4293 42.3566 20.4293C41.8304 20.4294 41.4782 20.4295 41.2029 20.3837C39.2693 20.0625 38.0175 18.1641 38.484 16.2603C38.5503 15.9893 38.6892 15.6656 38.8966 15.1819C38.9068 15.1581 38.9172 15.1338 38.9278 15.1091C38.9323 15.0985 38.9368 15.0881 38.9412 15.0778C39.0404 14.8462 39.1086 14.687 39.1877 14.543C39.7231 13.5676 40.7057 12.9197 41.8131 12.8118C41.9766 12.7958 42.1498 12.7959 42.4018 12.7959ZM42.4359 14.143C42.137 14.143 42.0337 14.1437 41.9438 14.1525C41.2793 14.2173 40.6898 14.606 40.3685 15.1912C40.325 15.2704 40.2836 15.3651 40.1659 15.6398C39.9162 16.2224 39.8284 16.4334 39.7923 16.5808C39.5125 17.7231 40.2635 18.8621 41.4237 19.0549C41.5734 19.0798 41.802 19.0822 42.4359 19.0822H49.0672C49.7011 19.0822 49.9296 19.0798 50.0793 19.0549C51.2395 18.8621 51.9906 17.7231 51.7107 16.5808C51.6746 16.4334 51.5868 16.2224 51.3371 15.6398C51.2194 15.3651 51.178 15.2704 51.1345 15.1912C50.8133 14.606 50.2237 14.2173 49.5593 14.1525C49.4694 14.1437 49.366 14.143 49.0672 14.143H42.4359Z" fill="#F2B80C"/>
<path fill-rule="evenodd" clip-rule="evenodd" d="M11.4015 27.1442C9.29365 27.1442 7.58486 28.853 7.58486 30.9609C7.58486 33.0688 9.29365 34.7776 11.4015 34.7776C13.5094 34.7776 15.2182 33.0688 15.2182 30.9609C15.2182 28.853 13.5094 27.1442 11.4015 27.1442ZM6.23779 30.9609C6.23779 28.109 8.54968 25.7971 11.4015 25.7971C14.2534 25.7971 16.5653 28.109 16.5653 30.9609C16.5653 33.8127 14.2534 36.1246 11.4015 36.1246C8.54968 36.1246 6.23779 33.8127 6.23779 30.9609Z" fill="#F2B80C"/>
<path fill-rule="evenodd" clip-rule="evenodd" d="M8.05168 37.4717C8.06288 37.4717 8.07424 37.4717 8.08575 37.4717L14.7512 37.4717C15.0031 37.4717 15.1764 37.4716 15.3399 37.4876C16.4473 37.5955 17.4299 38.2434 17.9653 39.2187C18.0443 39.3628 18.1125 39.522 18.2118 39.7536L18.2252 39.7849C18.2358 39.8096 18.2462 39.8339 18.2564 39.8577C18.4638 40.3414 18.6026 40.6651 18.669 40.9361C19.1354 42.8399 17.8837 44.7383 15.95 45.0595C15.6748 45.1052 15.3225 45.1052 14.7963 45.1051C14.7703 45.1051 14.7439 45.1051 14.7171 45.1051H8.08575C8.05892 45.1051 8.03252 45.1051 8.00655 45.1051C7.48032 45.1052 7.12809 45.1052 6.85284 45.0595C4.9192 44.7383 3.66745 42.8399 4.13386 40.9361C4.20025 40.6651 4.33906 40.3413 4.54645 39.8577C4.55669 39.8338 4.5671 39.8096 4.57767 39.7849C4.5822 39.7743 4.58667 39.7639 4.59108 39.7536C4.69031 39.522 4.75852 39.3628 4.83758 39.2187C5.37301 38.2434 6.35561 37.5955 7.46299 37.4876C7.6265 37.4716 7.79972 37.4717 8.05168 37.4717ZM8.08575 38.8188C7.78695 38.8188 7.68361 38.8195 7.59366 38.8283C6.92923 38.893 6.33967 39.2818 6.01842 39.867C5.97493 39.9462 5.93352 40.0409 5.81581 40.3155C5.56613 40.8981 5.47835 41.1092 5.44223 41.2566C5.16238 42.3989 5.91344 43.5379 7.07362 43.7307C7.22335 43.7555 7.45191 43.758 8.08575 43.758H14.7171C15.351 43.758 15.5795 43.7555 15.7292 43.7307C16.8894 43.5379 17.6405 42.3989 17.3606 41.2566C17.3245 41.1092 17.2367 40.8981 16.9871 40.3155C16.8693 40.0409 16.8279 39.9462 16.7844 39.867C16.4632 39.2818 15.8736 38.893 15.2092 38.8283C15.1193 38.8195 15.0159 38.8188 14.7171 38.8188H8.08575Z" fill="#F2B80C"/>
<path d="M10.665 24.079C10.8603 24.2742 11.1768 24.2742 11.3721 24.079L14.5541 20.897C14.7494 20.7017 14.7494 20.3852 14.5541 20.1899C14.3588 19.9946 14.0422 19.9946 13.847 20.1899L11.0186 23.0183L8.19013 20.1899C7.99487 19.9946 7.67828 19.9946 7.48302 20.1899C7.28776 20.3852 7.28776 20.7017 7.48302 20.897L10.665 24.079ZM41.3888 5.19312H27.0185V6.19312H41.3888V5.19312ZM10.5186 21.6931V23.7254H11.5186V21.6931H10.5186ZM27.0185 5.19312C17.9058 5.19312 10.5186 12.5804 10.5186 21.6931H11.5186C11.5186 13.1327 18.4581 6.19312 27.0185 6.19312V5.19312Z" fill="#F2B80C"/>
<path d="M46.4883 24.3218C46.2931 24.1265 45.9765 24.1265 45.7812 24.3218L42.5992 27.5037C42.404 27.699 42.404 28.0156 42.5992 28.2108C42.7945 28.4061 43.1111 28.4061 43.3063 28.2108L46.1348 25.3824L48.9632 28.2108C49.1585 28.4061 49.475 28.4061 49.6703 28.2108C49.8656 28.0156 49.8656 27.699 49.6703 27.5037L46.4883 24.3218ZM17.6627 42.2585L30.1348 42.2585L30.1348 41.2585L17.6627 41.2585L17.6627 42.2585ZM46.6348 25.7585L46.6348 24.6753L45.6348 24.6753L45.6348 25.7585L46.6348 25.7585ZM30.1348 42.2585C39.2475 42.2585 46.6348 34.8712 46.6348 25.7585L45.6348 25.7585C45.6348 34.319 38.6952 41.2585 30.1348 41.2585L30.1348 42.2585Z" fill="#F2B80C"/>
<path d="M29.3422 21.3918C28.8526 21.3918 28.3629 21.3817 27.8733 21.3918C27.3837 21.402 27.0703 21.6968 27.0605 22.134C27.0507 22.5611 27.3641 22.9067 27.8341 22.9271C28.3336 22.9474 28.833 22.9372 29.3422 22.9372C30.6152 22.9474 31.6434 23.9031 31.7512 25.1842C31.8589 26.4551 31.0069 27.6243 29.7633 27.8378C29.4499 27.8887 29.3814 28.0208 29.4009 28.3055C29.4107 28.4682 29.4107 28.641 29.3814 28.8037C29.303 29.2206 28.9701 29.5052 28.5784 29.5154C28.1769 29.5154 27.8341 29.2104 27.7558 28.7834C27.7362 28.6919 27.7362 28.6105 27.7362 28.519C27.7264 27.8277 27.8145 27.8785 27.0899 27.8785C26.7863 27.8785 26.473 27.8887 26.1694 27.8683C25.7581 27.848 25.4252 27.5125 25.3958 27.0956C25.3664 26.6991 25.621 26.3331 26.0127 26.2111C26.189 26.1602 26.375 26.1602 26.5611 26.1602C27.4816 26.1602 28.3923 26.1602 29.3128 26.1602C29.6458 26.1602 29.871 25.9976 30.0179 25.7027C30.1452 25.4384 30.0962 25.1842 29.9395 24.9503C29.7829 24.7267 29.5576 24.6555 29.303 24.6555C28.6665 24.6352 28.03 24.7063 27.3935 24.5945C26.2869 24.4013 25.4545 23.4456 25.3958 22.2865C25.337 21.1275 26.0911 20.0498 27.178 19.7549C27.7264 19.6024 27.7264 19.6024 27.746 18.9924C27.7558 18.5043 28.0202 18.1485 28.4119 18.0672C28.9309 17.9756 29.3618 18.3518 29.3911 18.9314C29.4303 19.6634 29.4303 19.6634 30.1452 19.6634C30.3998 19.6634 30.6642 19.6532 30.9188 19.6736C31.3986 19.7041 31.7414 20.0599 31.7414 20.5276C31.7414 20.9851 31.4084 21.3613 30.9188 21.3817C30.39 21.3918 29.8612 21.3817 29.3422 21.3918C29.3422 21.3817 29.3422 21.3817 29.3422 21.3918Z" fill="#F2B80C"/>
<circle cx="28.5751" cy="23.7848" r="9.05162" stroke="#F2B80C"/>
</svg>
