<svg width="98" height="98" viewBox="0 0 98 98" fill="none" xmlns="http://www.w3.org/2000/svg">
<g filter="url(#filter0_f_213_327)">
<rect x="31" y="31" width="36" height="36" rx="8" fill="#F2B80C" fill-opacity="0.3"/>
</g>
<g clip-path="url(#clip0_213_327)">
<path d="M47.4981 66.8416L47.4981 75.3282C47.4981 75.8201 47.9006 76.2227 48.3926 76.2227C48.8846 76.2227 49.2871 75.8201 49.2871 75.3282L49.2871 66.8416C49.2871 66.3496 48.8846 65.9471 48.3926 65.9471C47.9006 65.9471 47.4981 66.3496 47.4981 66.8416Z" fill="#F2B80C"/>
<path d="M40.8009 66.842L40.8009 70.8672C40.8009 71.3592 41.2034 71.7617 41.6953 71.7617C42.1873 71.7617 42.5898 71.3592 42.5898 70.8672L42.5898 66.8532C42.5898 66.3612 42.1873 65.9587 41.6953 65.9587C41.2034 65.9475 40.8009 66.35 40.8009 66.842Z" fill="#F2B80C"/>
<path d="M54.1954 66.842L54.1954 70.8672C54.1954 71.3592 54.5979 71.7617 55.0899 71.7617C55.5819 71.7617 55.9844 71.3592 55.9844 70.8672L55.9844 66.8532C55.9844 66.3612 55.5819 65.9587 55.0899 65.9587C54.5979 65.9475 54.1954 66.35 54.1954 66.842Z" fill="#F2B80C"/>
<path d="M49.289 31.0803L49.289 22.5937C49.289 22.1017 48.8865 21.6992 48.3945 21.6992C47.9025 21.6992 47.5 22.1017 47.5 22.5937L47.5 31.0803C47.5 31.5722 47.9025 31.9747 48.3945 31.9747C48.8865 31.9747 49.289 31.5722 49.289 31.0803Z" fill="#F2B80C"/>
<path d="M55.9863 31.0799L55.9863 27.0547C55.9863 26.5627 55.5837 26.1602 55.0918 26.1602C54.5998 26.1602 54.1973 26.5627 54.1973 27.0547L54.1973 31.0687C54.1973 31.5607 54.5998 31.9632 55.0918 31.9632C55.5837 31.9744 55.9863 31.5719 55.9863 31.0799Z" fill="#F2B80C"/>
<path d="M42.5917 31.0799L42.5917 27.0547C42.5917 26.5627 42.1892 26.1602 41.6972 26.1602C41.2053 26.1602 40.8027 26.5627 40.8027 27.0547L40.8027 31.0687C40.8027 31.5607 41.2053 31.9632 41.6972 31.9632C42.1892 31.9744 42.5917 31.5719 42.5917 31.0799Z" fill="#F2B80C"/>
<path d="M62.7902 58.1376C57.7037 58.1376 53.5803 54.0142 53.5803 48.9278C53.5803 43.8413 57.7037 39.718 62.7902 39.718C67.8766 39.718 72 43.8413 72 48.9278C72 54.0142 67.8766 58.1376 62.7902 58.1376Z" fill="#090901" stroke="#F2B80C" stroke-width="2"/>
</g>
<circle cx="35.5636" cy="50.6317" r="9.20984" transform="rotate(90 35.5636 50.6317)" fill="#090901" stroke="#F2B80C" stroke-width="2"/>
<circle cx="49.1779" cy="48.9295" r="12.6131" transform="rotate(90 49.1779 48.9295)" fill="#090901" stroke="#F2B80C" stroke-width="2"/>
<defs>
<filter id="filter0_f_213_327" x="0" y="0" width="98" height="98" filterUnits="userSpaceOnUse" color-interpolation-filters="sRGB">
<feFlood flood-opacity="0" result="BackgroundImageFix"/>
<feBlend mode="normal" in="SourceGraphic" in2="BackgroundImageFix" result="shape"/>
<feGaussianBlur stdDeviation="15.5" result="effect1_foregroundBlur_213_327"/>
</filter>
<clipPath id="clip0_213_327">
<rect width="57.8557" height="45.9443" fill="white" transform="translate(73 20) rotate(90)"/>
</clipPath>
</defs>
</svg>
